# xmcd
#
# Track frame offsets:
#	150
#	12107
#	25533
#	38614
#	51047
#	61639
#	75081
#	86343
#	96953
#	110458
#	126234
#	137804
#
# Disc length: 2013 seconds
#
# Revision: 0
# Processed by: cddbd v1.5.2PL0 Copyright (c) Steve Scherf et al.
# Submitted via: EasyCDDAExtractor 4.6.9.1
#
DISCID=7f07db0c
DTITLE=Louvin Brothers - Tragic Songs Of Life
DYEAR=1956
DGENRE=Country
TTITLE0=Kentucky
TTITLE1=I'll Be All Smiles Tonight
TTITLE2=Let Her Go, God Bless Her
TTITLE3=What Is Home Without Love
TTITLE4=A Tiny Broken Heart
TTITLE5=In The Pines
TTITLE6=Alabama
TTITLE7=Katie Dear
TTITLE8=My Brother's Will
TTITLE9=Knoxville Girl
TTITLE10=Take The News To Mother
TTITLE11=Mary Of The Wild Moor
EXTD=
EXTT0=
EXTT1=
EXTT2=
EXTT3=
EXTT4=
EXTT5=
EXTT6=
EXTT7=
EXTT8=
EXTT9=
EXTT10=
EXTT11=
PLAYORDER=
